<svg width="480" height="480" viewBox="0 0 480 480" fill="none" xmlns="http://www.w3.org/2000/svg"><path fill-rule="evenodd" clip-rule="evenodd" d="M240 368c70.692 0 128-57.308 128-128s-57.308-128-128-128-128 57.308-128 128 57.308 128 128 128m-20-208a8 8 0 0 1 16 0v132a8 8 0 0 1-16 0zm24 28a8 8 0 0 1 16 0v132a8 8 0 0 1-16 0zm-40-4a8 8 0 0 0-8 8v76a8 8 0 0 0 16 0v-76a8 8 0 0 0-8-8m64 28a8 8 0 0 1 16 0v76a8 8 0 0 1-16 0zm-88 2a8 8 0 0 0-8 8v20a8 8 0 0 0 16 0v-20a8 8 0 0 0-8-8m-32 18a8 8 0 1 1 16 0 8 8 0 0 1-16 0m152-2a8 8 0 0 0-8 8v20a8 8 0 0 0 16 0v-20a8 8 0 0 0-8-8m16 18a8 8 0 1 1 16 0 8 8 0 0 1-16 0" fill="#90A4AE" fill-opacity=".3"/></svg>